<svg id="Component_73_1" data-name="Component 73 – 1" xmlns="http://www.w3.org/2000/svg" width="65.56" height="65.56" viewBox="0 0 65.56 65.56">
    <path id="Path" d="M28.684,13.942c0,4.724-.006,10.643-.006,10.643a4.1,4.1,0,0,0,8.2,0V8.168A8.176,8.176,0,0,0,28.69,0h-16.4a4.1,4.1,0,0,0,0,8.2h10.5L1.214,29.785a4.049,4.049,0,0,0,0,5.781,4.173,4.173,0,0,0,5.855,0L28.684,13.942Z" transform="translate(28.688)" fill="#feb358"/>
    <path id="Path-2" data-name="Path" d="M57.365,57.392s-49.16-.027-49.16-.027-.01-49.2-.01-49.2c0,.031,16.349.027,16.349.027a4.1,4.1,0,0,0,0-8.2H8.178A8.19,8.19,0,0,0,0,8.168V57.392A8.187,8.187,0,0,0,8.205,65.56h49.15a8.162,8.162,0,0,0,8.205-8.168V40.975a4.1,4.1,0,0,0-8.2,0V57.392Z" fill="#feb358"/>
</svg>
